<?xml version="1.0" encoding="utf-8"?>
<!-- Generator: Adobe Illustrator 24.0.1, SVG Export Plug-In . SVG Version: 6.00 Build 0)  -->
<svg version="1.1" id="Capa_1" xmlns="http://www.w3.org/2000/svg" xmlns:xlink="http://www.w3.org/1999/xlink" x="0px" y="0px"
	 viewBox="0 0 1428.6 488" style="enable-background:new 0 0 1428.6 488;" xml:space="preserve">
<style type="text/css">
	.st0{fill:#E7E9E4;}
</style>
<g>
	<g>
		<g>
			<path class="st0" d="M304.7,224.5c-2.7-7.5-9.8-12.5-17.8-12.5c-8,0-15.1,5.1-17.7,12.6h-38.9v-25.2h25.2c3.5,0,6.3-2.8,6.3-6.3
				c0,0,0,0,0,0v-26.3c9.8-3.5,15-14.3,11.5-24.1c-3.5-9.8-14.3-15-24.1-11.5c-9.8,3.5-15,14.3-11.5,24.1c1.9,5.4,6.1,9.6,11.5,11.5
				v20h-18.9v-12.6c0-3.5-2.8-6.3-6.3-6.3c0,0,0,0,0,0h-12.6v-32.6c9.8-3.5,15-14.3,11.5-24.1c-3.5-9.8-14.3-15-24.1-11.5
				c-9.8,3.5-15,14.3-11.5,24.1c1.9,5.4,6.1,9.6,11.5,11.5V168h-25.2V67.5c0-3.5-2.8-6.3-6.3-6.3c0,0,0,0,0,0
				C89.8,61.2,29,117.4,29,189.1c0,34.1,13.5,79.2,35.3,117.7c3.9,6.9,9,14.2,14.4,21.9c11.4,16.3,24.1,34.6,25.5,50.5
				c-4.8,3.4-7.7,9-7.6,14.9c0,4.3,1.5,8.4,4.2,11.7c-3.7,3.7-5.8,8.7-5.8,13.9c0,10.4,8.5,18.9,18.9,18.9h106.9
				c10.5-0.1,18.9-8.6,18.9-19.1c0-0.1,0-0.1,0-0.2c0-5.1-2.1-10-5.8-13.5c2.7-3.4,4.2-7.7,4.2-12.1c0-10-8.1-18-18.1-18
				c-0.3,0-0.5,0-0.8,0h-45.6V256h12.6v18.9c0,3.5,2.8,6.3,6.3,6.3c0,0,0,0,0,0h18.9v7.4c-9.8,3.5-15,14.3-11.5,24.1
				c3.5,9.8,14.3,15,24.1,11.5c9.8-3.5,15-14.3,11.5-24.1c-1.9-5.4-6.1-9.6-11.5-11.5v-13.7c0-3.5-2.8-6.3-6.3-6.3c0,0,0,0,0,0
				h-18.9V256H224c3.5,0,6.3-2.8,6.3-6.3c0,0,0,0,0,0v-12.6h38.9c3.5,9.8,14.3,14.9,24.1,11.4C303,245.1,308.2,234.3,304.7,224.5z
				 M255.4,142.8c3.5,0,6.3,2.8,6.3,6.3c0,3.5-2.8,6.3-6.3,6.3c-3.5,0-6.3-2.8-6.3-6.3C249.1,145.6,252,142.8,255.4,142.8z
				 M89,321.5c-5.2-7.4-10.2-14.5-13.8-20.9c-20.5-36.2-33.7-80-33.7-111.5c0-62.7,52-112.3,119.5-115.2v43.9
				c-1.7,0.1-3.4,0.3-5.2,0.5c-2.7,0.3-4.8,2.3-5.4,4.9l-1.9,9.1c-1.6,0.4-3.2,0.8-4.7,1.3l-6.3-7c-1.8-2-4.7-2.6-7.2-1.6
				c-7,3-13.7,6.9-19.8,11.6c-2.1,1.6-3,4.4-2.2,7l2.9,8.8c-1.2,1.1-2.3,2.3-3.5,3.5l-8.8-2.9c-2.6-0.8-5.4,0-7,2.2
				c-4.6,6.1-8.5,12.8-11.6,19.8c-1.1,2.5-0.4,5.4,1.6,7.2l7,6.3c-0.5,1.6-0.9,3.1-1.3,4.7l-9.8,2c-2.9,0.6-5.1,3.2-5.1,6.2v21.4
				c0,3,2.1,5.6,5.1,6.2l9.8,2c0.4,1.6,0.8,3.1,1.3,4.7l-7,6.3c-2,1.8-2.6,4.7-1.6,7.2c3,7,6.9,13.7,11.6,19.8c1.6,2.1,4.4,3,7,2.2
				l8.8-2.9c1.1,1.2,2.3,2.3,3.5,3.5l-2.9,8.8c-0.8,2.6,0,5.4,2.2,7c6.1,4.6,12.8,8.5,19.8,11.6c2.5,1.1,5.4,0.4,7.2-1.6l6.3-7
				c1.6,0.5,3.1,0.9,4.7,1.3l1.9,9.1c0.6,2.6,2.7,4.6,5.4,5c1.8,0.2,3.5,0.4,5.2,0.5v69.7h-44.6C113.9,357.2,100.8,338.3,89,321.5z
				 M110.8,212c0,28.8,21.7,53,50.3,56.2v21.6l-1-5c-0.5-2.5-2.5-4.4-5-4.9c-3.7-0.7-7.4-1.7-11-3c-0.7-0.2-1.4-0.4-2.1-0.4
				c-1.8,0-3.5,0.8-4.7,2.1l-5.9,6.6c-3.3-1.6-6.4-3.5-9.5-5.6l2.7-8.3c0.8-2.4,0-5.1-1.9-6.8c-2.9-2.5-5.6-5.1-8-8
				c-1.7-1.9-4.3-2.7-6.8-1.9l-8.3,2.7c-2.1-3-3.9-6.2-5.6-9.5l6.6-5.9c1.9-1.7,2.6-4.4,1.7-6.8c-1.3-3.6-2.3-7.2-3-11
				c-0.5-2.5-2.4-4.5-5-5l-8.8-1.8v-11.1l8.8-1.8c2.5-0.5,4.5-2.5,5-5c0.7-3.7,1.7-7.4,3-11c0.9-2.4,0.2-5.1-1.7-6.8l-6.6-5.9
				c1.6-3.3,3.5-6.4,5.6-9.5l8.3,2.7c2.4,0.8,5.1,0,6.8-1.9c2.5-2.9,5.2-5.6,8.1-8.1c1.9-1.7,2.7-4.3,1.9-6.8l-2.7-8.3
				c3-2.1,6.2-3.9,9.5-5.6l5.9,6.6c1.7,1.9,4.4,2.6,6.8,1.7c3.6-1.3,7.2-2.3,11-3c2.5-0.5,4.5-2.4,5-4.9l1-5v21.6
				C132.5,159,110.8,183.2,110.8,212z M161.1,168.5v87.1c-24-3.4-40.7-25.7-37.3-49.8C126.6,186.4,141.8,171.2,161.1,168.5z
				 M227.1,419.8c0,3.5-2.8,6.3-6.3,6.3H113.9c-3.5-0.1-6.4-3-6.3-6.5c0-0.1,0-0.1,0-0.2c0-3.5,2.8-6.3,6.3-6.3h106.9
				c3.5,0.1,6.4,3,6.3,6.5C227.1,419.6,227.1,419.7,227.1,419.8z M219.2,388.3c3.2-0.3,6,2,6.3,5.2c0,0.2,0,0.4,0,0.6
				c0,3.5-2.8,6.3-6.3,6.3H115.5c-3.5-0.1-6.4-3-6.3-6.5c0-0.1,0-0.1,0-0.2c0.1-3.1,2.8-5.6,5.9-5.4c0.1,0,0.2,0,0.4,0L219.2,388.3
				L219.2,388.3z M217.7,300c3.5,0,6.3,2.8,6.3,6.3c0,3.5-2.8,6.3-6.3,6.3s-6.3-2.8-6.3-6.3C211.4,302.9,214.2,300,217.7,300z
				 M205.1,111.3c3.5,0,6.3,2.8,6.3,6.3s-2.8,6.3-6.3,6.3s-6.3-2.8-6.3-6.3C198.8,114.2,201.6,111.3,205.1,111.3z M217.7,243.4h-44
				v-62.9h44V243.4z M286.9,237.1c-3.5,0-6.3-2.8-6.3-6.3c0-3.5,2.8-6.3,6.3-6.3c3.5,0,6.3,2.8,6.3,6.3
				C293.2,234.3,290.4,237.1,286.9,237.1z"/>
		</g>
	</g>
	<g>
		<g>
			<path class="st0" d="M228,348.8c-2.2,4-4.2,8.1-5.9,12.3l11.7,4.6c1.5-3.7,3.2-7.3,5.2-10.8L228,348.8z"/>
		</g>
	</g>
	<g>
		<g>
			<path class="st0" d="M242.2,326.6c-2.5,3.6-4.9,7.2-7.3,10.8l10.6,6.8c2.3-3.5,4.7-7,7.1-10.5L242.2,326.6z"/>
		</g>
	</g>
	<g>
		<g>
			<path class="st0" d="M256.5,305.7c-2.1,3.4-4.5,6.8-7,10.4l10.3,7.2c2.6-3.7,5.1-7.4,7.3-10.9L256.5,305.7z"/>
		</g>
	</g>
	<g>
		<g>
			<path class="st0" d="M268.3,283.8c-1.8,3.8-3.7,7.5-5.7,11.2l11.1,5.9c2.1-3.9,4-7.8,5.9-11.7L268.3,283.8z"/>
		</g>
	</g>
	<g>
		<g>
			<path class="st0" d="M278.1,260.7c-1.5,3.9-3,7.8-4.7,11.6l11.6,4.9c1.7-4,3.3-8.1,4.9-12.1L278.1,260.7z"/>
		</g>
	</g>
	<g>
		<g>
			<path class="st0" d="M305.7,187.9l-12.6,0.1l0,1.2c0,3.5-0.2,7.2-0.5,11.1l12.5,1.1c0.4-4.2,0.5-8.3,0.5-12.1L305.7,187.9z"/>
		</g>
	</g>
	<g>
		<g>
			<path class="st0" d="M302.5,161.1l-12.2,2.9c0.9,3.9,1.6,7.9,2.1,11.9l12.5-1.5C304.4,169.9,303.6,165.5,302.5,161.1z"/>
		</g>
	</g>
	<g>
		<g>
			<path class="st0" d="M293.5,135.7l-11.3,5.5c1.8,3.6,3.3,7.4,4.7,11.2l11.8-4.2C297.2,143.9,295.5,139.7,293.5,135.7z"/>
		</g>
	</g>
	<g>
		<g>
			<path class="st0" d="M279.1,112.9l-9.9,7.8c2.5,3.2,4.9,6.5,7,9.9l10.6-6.7C284.5,120.1,281.9,116.4,279.1,112.9z"/>
		</g>
	</g>
	<g>
		<g>
			<path class="st0" d="M260.3,93.7l-8,9.7c3.1,2.6,6.1,5.3,9,8.2l9-8.8C267,99.6,263.7,96.6,260.3,93.7z"/>
		</g>
	</g>
	<g>
		<g>
			<path class="st0" d="M238,78.7l-6,11.1c3.6,1.9,7.1,4.1,10.5,6.3l7-10.4C245.8,83.2,242,80.9,238,78.7z"/>
		</g>
	</g>
	<g>
		<g>
			<path class="st0" d="M213.4,68.3l-3.8,12c3.9,1.2,7.8,2.7,11.5,4.2l4.9-11.6C221.9,71.2,217.6,69.7,213.4,68.3z"/>
		</g>
	</g>
	<g>
		<g>
			<path class="st0" d="M187.3,62.5L185.6,75c4.1,0.5,8.1,1.2,12.1,2.1l2.7-12.3C196.1,63.9,191.7,63.1,187.3,62.5z"/>
		</g>
	</g>
</g>
<g>
	<path class="st0" d="M383,181.6v136.5h-35.7V181.6H383z"/>
	<path class="st0" d="M530.2,181.6v136.9h-14.4L447,248.8l0.4,24.6v44.7h-35.1V181h14.4l69,67.5l-0.6-24.2v-42.7H530.2z"/>
	<path class="st0" d="M586.9,311.2c-10.9-6-19.3-14.3-25.4-25c-6.1-10.7-9.2-22.8-9.2-36.5c0-13.7,3.1-25.8,9.2-36.5
		c6.1-10.7,14.6-19,25.4-25c10.9-6,23.2-9,37-9c13.8,0,26.1,3,37,9c10.9,6,19.3,14.3,25.4,25c6.1,10.7,9.2,22.8,9.2,36.5
		c0,13.7-3.1,25.8-9.2,36.5c-6.1,10.7-14.6,19-25.4,25c-10.9,6-23.2,9-37,9C610,320.2,597.7,317.2,586.9,311.2z M649.3,276.2
		c6.4-6.7,9.7-15.5,9.7-26.4c0-10.9-3.2-19.7-9.7-26.4c-6.4-6.7-14.9-10-25.4-10s-19,3.3-25.4,9.9c-6.4,6.6-9.7,15.5-9.7,26.5
		c0,10.9,3.2,19.7,9.7,26.4c6.4,6.7,14.9,10,25.4,10S642.8,282.9,649.3,276.2z"/>
	<path class="st0" d="M834.4,181.6v2.1l-59.9,135.7H759l-60.5-135.7v-2.1h38.2l17.4,40.6l12.7,36.9l12.1-36.9l17.2-40.6H834.4z"/>
	<path class="st0" d="M966.1,316.1v2h-38.4l-7.8-17.4h-51.5l-7.6,17.4h-38.4v-2l64.2-135.9h15.6L966.1,316.1z M881.4,269.9h25.2
		l-12.3-33.3L881.4,269.9z"/>
	<path class="st0" d="M1086.5,301.2c-8.9,9.3-20.4,15.2-34.4,17.6l-2.3,9.2c4.3,1.4,7.7,3.7,10.2,6.8c2.5,3.1,3.8,6.7,3.8,10.7
		c0,6.6-2.4,11.8-7.3,15.5c-4.9,3.7-11.2,5.6-19,5.6c-8.7,0-17.5-2.1-26.3-6.2l5.1-17c3.1,1.6,6.7,2.3,10.7,2.3
		c2.6,0,4.6-0.4,6.1-1.3c1.5-0.8,2.2-2.2,2.2-4c0-2-0.8-3.4-2.4-4.5c-1.6-1-3.9-1.6-6.9-1.6h-2.9l4.1-14.8
		c-11.6-1.3-21.8-5.1-30.8-11.4c-9-6.3-15.9-14.5-20.9-24.6c-4.9-10.1-7.4-21.4-7.4-33.8c0-13.7,2.9-25.8,8.8-36.5
		c5.9-10.7,14-19,24.4-25c10.4-6,22.2-9,35.5-9c17.7,0,32.3,4.6,43.8,13.9c11.5,9.3,19.1,21.9,22.7,37.7h-35.5
		c-2.7-5.6-6.7-9.9-11.8-13.1c-5.1-3.1-11.1-4.7-17.8-4.7c-10,0-18.1,3.3-24.3,9.9c-6.2,6.6-9.3,15.5-9.3,26.5
		c0,10.9,3.1,19.7,9.3,26.4c6.2,6.7,14.3,10,24.3,10c7.3,0,13.6-1.8,19-5.4c5.4-3.6,9.3-8.5,11.8-14.9h35.1
		C1101.2,280.2,1095.4,291.9,1086.5,301.2z"/>
	<path class="st0" d="M1249.2,316.1v2h-38.4l-7.8-17.4h-51.5l-7.6,17.4h-38.4v-2l64.2-135.9h15.6L1249.2,316.1z M1185.5,166.9
		c-2.3-0.9-5.3-2.4-9.1-4.5c-2.7-1.6-5-2.7-6.7-3.5c-1.8-0.8-3.5-1.2-5.2-1.2c-2.2,0-4.1,0.8-5.7,2.3c-1.6,1.6-3.2,4-4.9,7.4
		l-18.7-8.6c2.7-8.4,6.4-15,11-19.7c4.6-4.7,10-7,16.3-7c3,0,6,0.6,9,1.8c3,1.2,6.2,2.8,9.8,4.9c0.5,0.3,1.6,0.8,3.2,1.7
		c1.6,0.8,3,1.5,4.2,1.9c1.2,0.4,2.2,0.6,3.1,0.6c1.7,0,3.3-0.8,4.8-2.4c1.5-1.6,2.7-3.8,3.6-6.5l18.5,8.4
		c-2.1,8.2-5.4,14.6-9.8,19.1c-4.5,4.6-9.8,6.8-16.1,6.8C1190.2,168.3,1187.8,167.9,1185.5,166.9z M1164.6,269.9h25.2l-12.3-33.3
		L1164.6,269.9z"/>
	<path class="st0" d="M1285.8,311.2c-10.9-6-19.3-14.3-25.4-25c-6.1-10.7-9.2-22.8-9.2-36.5c0-13.7,3.1-25.8,9.2-36.5
		c6.1-10.7,14.6-19,25.4-25c10.9-6,23.2-9,37-9c13.8,0,26.1,3,37,9c10.9,6,19.3,14.3,25.4,25c6.1,10.7,9.2,22.8,9.2,36.5
		c0,13.7-3.1,25.8-9.2,36.5c-6.1,10.7-14.6,19-25.4,25c-10.9,6-23.2,9-37,9C1308.9,320.2,1296.6,317.2,1285.8,311.2z M1348.2,276.2
		c6.4-6.7,9.7-15.5,9.7-26.4c0-10.9-3.2-19.7-9.7-26.4c-6.4-6.7-14.9-10-25.4-10c-10.5,0-19,3.3-25.4,9.9
		c-6.4,6.6-9.7,15.5-9.7,26.5c0,10.9,3.2,19.7,9.7,26.4c6.4,6.7,14.9,10,25.4,10C1333.2,286.3,1341.7,282.9,1348.2,276.2z"/>
</g>
</svg>
