<?xml version="1.0" encoding="utf-8"?>
<!-- Generator: Adobe Illustrator 24.0.1, SVG Export Plug-In . SVG Version: 6.00 Build 0)  -->
<svg version="1.1" id="Capa_1" xmlns="http://www.w3.org/2000/svg" xmlns:xlink="http://www.w3.org/1999/xlink" x="0px" y="0px"
	 viewBox="0 0 957 488" style="enable-background:new 0 0 957 488;" xml:space="preserve">
<style type="text/css">
	.st0{fill:#E7E9E4;}
	.st1{fill:none;}
	.st2{font-family:'IntroDemo-BlackCAPS';}
	.st3{font-size:116.7378px;}
</style>
<g>
	<g>
		<g>
			<path class="st0" d="M255,227c-2.4-6.6-8.6-11-15.7-11c-7,0-13.3,4.5-15.6,11.1h-34.3v-22.2h22.2c3.1,0,5.5-2.5,5.5-5.5
				c0,0,0,0,0,0v-23.2c8.7-3.1,13.2-12.6,10.1-21.2c-3.1-8.7-12.6-13.2-21.2-10.1s-13.2,12.6-10.1,21.2c1.7,4.7,5.4,8.5,10.1,10.1
				v17.7h-16.6v-11.1c0-3.1-2.5-5.5-5.5-5.5c0,0,0,0,0,0h-11.1v-28.7c8.7-3.1,13.2-12.6,10.1-21.2c-3.1-8.7-12.6-13.2-21.2-10.1
				c-8.7,3.1-13.2,12.6-10.1,21.2c1.7,4.7,5.4,8.5,10.1,10.1v28.7h-22.2V88.6c0-3.1-2.5-5.5-5.5-5.5c0,0,0,0,0,0
				C65.6,83,12,132.6,12,195.8c0,30,11.9,69.8,31.1,103.8c3.4,6.1,7.9,12.5,12.7,19.3c10.1,14.3,21.3,30.5,22.5,44.5
				c-4.3,3-6.8,7.9-6.7,13.2c0,3.7,1.3,7.4,3.7,10.3c-3.3,3.2-5.1,7.7-5.1,12.3c0,9.2,7.5,16.6,16.6,16.6h94.3
				c9.2-0.1,16.7-7.6,16.6-16.8c0-0.1,0-0.1,0-0.2c0-4.5-1.8-8.8-5.1-11.9c2.4-3,3.7-6.8,3.7-10.6c0-8.8-7.1-15.9-15.9-15.9
				c-0.2,0-0.5,0-0.7,0h-40.2V254.7h11.1v16.6c0,3.1,2.5,5.5,5.5,5.5c0,0,0,0,0,0h16.6v6.6c-8.7,3.1-13.2,12.6-10.1,21.2
				s12.6,13.2,21.2,10.1c8.7-3.1,13.2-12.6,10.1-21.2c-1.7-4.7-5.4-8.5-10.1-10.1v-12.1c0-3.1-2.5-5.5-5.5-5.5c0,0,0,0,0,0h-16.6
				v-11.1h22.2c3.1,0,5.5-2.5,5.5-5.5c0,0,0,0,0,0v-11.1h34.3c3.1,8.6,12.6,13.1,21.2,10.1C253.6,245.1,258.1,235.6,255,227z
				 M211.6,154.9c3.1,0,5.5,2.5,5.5,5.5c0,3.1-2.5,5.5-5.5,5.5c-3.1,0-5.5-2.5-5.5-5.5C206.1,157.4,208.6,154.9,211.6,154.9z
				 M64.9,312.5c-4.6-6.6-8.9-12.8-12.1-18.4c-18-31.9-29.7-70.5-29.7-98.3c0-55.3,45.8-99,105.4-101.5V133c-1.5,0.1-3,0.2-4.6,0.4
				c-2.4,0.3-4.3,2-4.8,4.4l-1.7,8c-1.4,0.3-2.8,0.7-4.2,1.1l-5.5-6.2c-1.6-1.8-4.1-2.3-6.3-1.4c-6.2,2.7-12.1,6.1-17.4,10.2
				c-1.9,1.4-2.7,3.9-1.9,6.2l2.5,7.8c-1,1-2.1,2-3.1,3.1l-7.7-2.5c-2.3-0.7-4.7,0-6.2,1.9c-4.1,5.4-7.5,11.2-10.2,17.5
				c-0.9,2.2-0.4,4.7,1.4,6.3l6.2,5.5c-0.4,1.4-0.8,2.7-1.1,4.1l-8.6,1.7c-2.6,0.5-4.5,2.8-4.5,5.4v18.9c0,2.6,1.9,4.9,4.5,5.4
				l8.6,1.7c0.3,1.4,0.7,2.7,1.1,4.1l-6.2,5.5c-1.8,1.6-2.3,4.1-1.4,6.3c2.7,6.2,6.1,12.1,10.2,17.5c1.4,1.9,3.9,2.7,6.2,1.9
				l7.7-2.5c1,1,2,2.1,3.1,3.1l-2.5,7.7c-0.7,2.3,0,4.7,1.9,6.2c5.4,4.1,11.2,7.5,17.4,10.2c2.2,0.9,4.7,0.4,6.3-1.4l5.5-6.2
				c1.4,0.4,2.8,0.8,4.2,1.1l1.7,8c0.5,2.3,2.4,4.1,4.8,4.4c1.6,0.2,3.1,0.3,4.6,0.4v61.4H89.2C86.9,343.9,75.3,327.3,64.9,312.5z
				 M84.1,215.9c0,25.4,19.1,46.7,44.4,49.6v19.1l-0.9-4.4c-0.5-2.2-2.2-3.9-4.4-4.3c-3.3-0.6-6.5-1.5-9.7-2.6
				c-0.6-0.2-1.2-0.3-1.9-0.3c-1.6,0-3.1,0.7-4.1,1.8l-5.2,5.8c-2.9-1.4-5.7-3.1-8.3-4.9l2.4-7.3c0.7-2.1,0-4.5-1.7-6
				c-2.6-2.2-4.9-4.5-7.1-7.1c-1.5-1.7-3.8-2.4-6-1.7l-7.3,2.4c-1.8-2.7-3.5-5.5-4.9-8.3l5.8-5.2c1.7-1.5,2.3-3.9,1.5-6
				c-1.1-3.1-2-6.4-2.6-9.7c-0.4-2.2-2.1-4-4.4-4.5l-7.8-1.5V211l7.8-1.5c2.2-0.4,4-2.2,4.4-4.5c0.6-3.3,1.5-6.5,2.6-9.7
				c0.8-2.1,0.2-4.5-1.5-6l-5.8-5.2c1.4-2.9,3.1-5.7,4.9-8.3l7.3,2.4c2.1,0.7,4.5,0,6-1.7c2.2-2.6,4.5-4.9,7.1-7.1
				c1.7-1.5,2.4-3.8,1.7-6l-2.4-7.3c2.7-1.8,5.5-3.5,8.3-4.9l5.2,5.8c1.5,1.7,3.9,2.3,6,1.5c3.1-1.1,6.4-2,9.7-2.6
				c2.2-0.4,4-2.1,4.4-4.3l0.9-4.4v19.1C103.2,169.2,84.1,190.5,84.1,215.9z M128.4,177.5v76.7c-21.2-3-35.9-22.7-32.9-43.9
				C98,193.4,111.4,180,128.4,177.5z M186.7,399.1c0,3.1-2.5,5.5-5.5,5.5H86.9c-3.1-0.1-5.6-2.6-5.6-5.7c0-0.1,0-0.1,0-0.2
				c0-3.1,2.5-5.5,5.5-5.5h94.3c3.1,0.1,5.6,2.6,5.6,5.7C186.7,399,186.7,399,186.7,399.1z M179.7,371.4c2.8-0.3,5.3,1.8,5.5,4.6
				c0,0.2,0,0.4,0,0.6c0,3.1-2.5,5.5-5.5,5.5H88.3c-3.1-0.1-5.6-2.6-5.6-5.7c0-0.1,0-0.1,0-0.2c0.1-2.8,2.5-4.9,5.2-4.8
				c0.1,0,0.2,0,0.3,0L179.7,371.4L179.7,371.4z M178.3,293.5c3.1,0,5.5,2.5,5.5,5.5c0,3.1-2.5,5.5-5.5,5.5c-3.1,0-5.5-2.5-5.5-5.5
				C172.8,296,175.3,293.6,178.3,293.5z M167.3,127.2c3.1,0,5.5,2.5,5.5,5.5c0,3.1-2.5,5.5-5.5,5.5s-5.5-2.5-5.5-5.5
				C161.7,129.7,164.2,127.2,167.3,127.2z M178.3,243.6h-38.8v-55.4h38.8V243.6z M239.3,238.1c-3.1,0-5.5-2.5-5.5-5.5
				c0-3.1,2.5-5.5,5.5-5.5c3.1,0,5.5,2.5,5.5,5.5C244.9,235.6,242.4,238.1,239.3,238.1z"/>
		</g>
	</g>
	<g>
		<g>
			<path class="st0" d="M187.5,336.5c-2,3.5-3.7,7.1-5.2,10.8l10.3,4.1c1.3-3.3,2.9-6.5,4.6-9.6L187.5,336.5z"/>
		</g>
	</g>
	<g>
		<g>
			<path class="st0" d="M199.9,317c-2.2,3.1-4.4,6.3-6.4,9.5l9.3,6c2-3.1,4.1-6.2,6.2-9.2L199.9,317z"/>
		</g>
	</g>
	<g>
		<g>
			<path class="st0" d="M212.5,298.5c-1.9,3-4,6-6.1,9.2l9.1,6.3c2.3-3.3,4.5-6.5,6.4-9.6L212.5,298.5z"/>
		</g>
	</g>
	<g>
		<g>
			<path class="st0" d="M223,279.2c-1.6,3.3-3.3,6.6-5,9.9l9.8,5.2c1.8-3.4,3.6-6.8,5.2-10.3L223,279.2z"/>
		</g>
	</g>
	<g>
		<g>
			<path class="st0" d="M231.6,258.8c-1.3,3.4-2.7,6.9-4.1,10.3l10.2,4.3c1.5-3.6,2.9-7.1,4.3-10.7L231.6,258.8z"/>
		</g>
	</g>
	<g>
		<g>
			<path class="st0" d="M256,194.7l-11.1,0.1l0,1c0,3.1-0.1,6.4-0.4,9.8l11.1,0.9c0.3-3.7,0.5-7.3,0.5-10.7L256,194.7z"/>
		</g>
	</g>
	<g>
		<g>
			<path class="st0" d="M253.1,171.1l-10.8,2.5c0.8,3.5,1.4,7,1.8,10.5l11-1.3C254.7,178.9,254,174.9,253.1,171.1z"/>
		</g>
	</g>
	<g>
		<g>
			<path class="st0" d="M245.2,148.7l-10,4.9c1.6,3.2,2.9,6.5,4.1,9.8l10.4-3.7C248.5,155.9,246.9,152.2,245.2,148.7z"/>
		</g>
	</g>
	<g>
		<g>
			<path class="st0" d="M232.5,128.6l-8.7,6.9c2.2,2.8,4.3,5.7,6.2,8.7l9.4-5.9C237.3,134.9,235,131.7,232.5,128.6z"/>
		</g>
	</g>
	<g>
		<g>
			<path class="st0" d="M215.9,111.7l-7.1,8.5c2.8,2.3,5.4,4.7,7.9,7.3l7.9-7.8C221.8,116.9,218.9,114.2,215.9,111.7z"/>
		</g>
	</g>
	<g>
		<g>
			<path class="st0" d="M196.3,98.5l-5.3,9.8c3.2,1.7,6.3,3.6,9.2,5.6l6.2-9.2C203.1,102.4,199.7,100.3,196.3,98.5z"/>
		</g>
	</g>
	<g>
		<g>
			<path class="st0" d="M174.5,89.3l-3.4,10.6c3.5,1.1,6.9,2.4,10.1,3.7l4.3-10.2C182,91.8,178.3,90.5,174.5,89.3z"/>
		</g>
	</g>
	<g>
		<g>
			<path class="st0" d="M151.5,84.2l-1.4,11c3.6,0.5,7.2,1.1,10.6,1.9l2.4-10.8C159.3,85.4,155.4,84.7,151.5,84.2z"/>
		</g>
	</g>
</g>
<rect x="305.9" y="207" class="st1" width="640.9" height="84.8"/>
<text transform="matrix(1 0 0 1 305.9063 288.6913)"><tspan x="0" y="0" class="st0 st2 st3">INOVA</tspan><tspan x="386.2" y="0" class="st0 st2 st3">-</tspan></text>
</svg>
