<?xml version="1.0" encoding="utf-8"?>
<!-- Generator: Adobe Illustrator 24.0.1, SVG Export Plug-In . SVG Version: 6.00 Build 0)  -->
<svg version="1.1" id="Camada_1" xmlns="http://www.w3.org/2000/svg" xmlns:xlink="http://www.w3.org/1999/xlink" x="0px" y="0px"
	 viewBox="0 0 2000 2000" style="enable-background:new 0 0 2000 2000;" xml:space="preserve">
<style type="text/css">
	.st0{fill:#1B2B42;}
	.st1{fill:#FFFFFF;}
</style>
<g>
	
		<image style="overflow:visible;opacity:0.75;" width="2001" height="2001" xlink:href="81F65A01.png"  transform="matrix(1 0 0 1 11 39)">
	</image>
	<g>
		<circle class="st0" cx="999.5" cy="995.5" r="952.5"/>
	</g>
</g>
<path class="st1" d="M1010.7,890.7c-37.6,0-50.7,27.4-69.1,45.4c-103,101.4-205.6,203.3-306.8,306.4c-36.7,37.4-64.2,72.2-119,16.2
	c-49.9-50.9-18.8-75.2,14.8-108.5c137.9-136.8,277-272.5,411.1-412.9c46.6-48.8,73.7-43.8,117.7,2.1
	c134.6,140,273.1,276.3,411.5,412.6c35.9,35.3,59.2,60.9,10.6,108.7c-47.8,47-73.8,26.6-109.6-10.2
	c-100.8-103.6-203.8-205-306.1-307.1C1047.1,924.6,1027.4,906.6,1010.7,890.7z"/>
</svg>
